<svg width="21" height="17" viewBox="0 0 21 17" fill="none" xmlns="http://www.w3.org/2000/svg">
<path d="M17.4696 2.01829C16.1694 1.43125 14.7751 0.998753 13.3173 0.751038C13.2908 0.746261 13.2643 0.758203 13.2506 0.782105C13.0712 1.09593 12.8726 1.50533 12.7335 1.82711C11.1655 1.59613 9.60562 1.59613 8.06977 1.82711C7.93065 1.49817 7.7248 1.09593 7.54468 0.782105C7.53101 0.759002 7.50448 0.74706 7.47794 0.751038C6.02092 0.997963 4.62662 1.43046 3.32559 2.01829C3.31432 2.02306 3.30468 2.03104 3.29827 2.04139C0.653578 5.92914 -0.0709123 9.72133 0.284498 13.4665C0.286106 13.4849 0.29656 13.5024 0.311034 13.5135C2.05592 14.7744 3.74615 15.5398 5.40498 16.0472C5.43153 16.0552 5.45966 16.0457 5.47655 16.0241C5.86896 15.4968 6.21874 14.9409 6.51865 14.3562C6.53635 14.322 6.51945 14.2813 6.48328 14.2678C5.92846 14.0607 5.40016 13.8082 4.89197 13.5215C4.85177 13.4984 4.84855 13.4419 4.88553 13.4147C4.99247 13.3359 5.09944 13.2538 5.20156 13.1711C5.22003 13.1559 5.24578 13.1527 5.2675 13.1622C8.60608 14.6621 12.2205 14.6621 15.5197 13.1622C15.5414 13.1519 15.5672 13.1551 15.5865 13.1702C15.6886 13.2531 15.7956 13.3359 15.9033 13.4147C15.9402 13.4419 15.9379 13.4984 15.8977 13.5215C15.3894 13.8138 14.8612 14.0607 14.3055 14.267C14.2694 14.2806 14.2532 14.322 14.2709 14.3562C14.5774 14.9401 14.9271 15.4961 15.3123 16.0233C15.3283 16.0457 15.3573 16.0552 15.3838 16.0472C17.0507 15.5398 18.7409 14.7744 20.4858 13.5135C20.5011 13.5024 20.5108 13.4856 20.5124 13.4674C20.9377 9.13746 19.7999 5.37638 17.4962 2.04218C17.4906 2.03104 17.4809 2.02306 17.4696 2.01829ZM7.01721 11.1861C6.01207 11.1861 5.18386 10.2781 5.18386 9.16296C5.18386 8.04785 5.99601 7.13988 7.01721 7.13988C8.04643 7.13988 8.86663 8.05584 8.85056 9.16296C8.85056 10.2781 8.03839 11.1861 7.01721 11.1861ZM13.7957 11.1861C12.7907 11.1861 11.9624 10.2781 11.9624 9.16296C11.9624 8.04785 12.7745 7.13988 13.7957 7.13988C14.825 7.13988 15.6451 8.05584 15.6291 9.16296C15.6291 10.2781 14.825 11.1861 13.7957 11.1861Z" fill="#161428"/>
</svg>
