<svg xmlns="http://www.w3.org/2000/svg" width="24" height="24" fill="none" viewBox="0 0 24 24">
    <g clip-path="url(#prefix__clip0)">
        <path fill="#777F8D" fill-rule="evenodd" d="M18.384 22.78c.322.227.737.284 1.107.144.37-.14.642-.457.724-.84.869-4.084 2.977-14.42 3.768-18.136.06-.28-.04-.57-.26-.758-.22-.187-.525-.24-.797-.14C18.733 4.602 5.82 9.447.542 11.4c-.335.124-.553.446-.542.8.012.353.25.66.593.763 2.367.708 5.474 1.693 5.474 1.693s1.452 4.385 2.209 6.615c.095.28.314.5.603.576.288.075.596-.004.81-.207l3.097-2.923s3.572 2.62 5.598 4.062zm-11.01-8.678l1.679 5.538.373-3.507L19.61 6.947c.108-.098.123-.262.033-.377-.09-.115-.253-.142-.376-.064L7.374 14.102z" clip-rule="evenodd"/>
    </g>
    <defs>
        <clipPath id="prefix__clip0">
            <path fill="#fff" d="M0 0h24v24H0V0z"/>
        </clipPath>
    </defs>
</svg>
