<svg width="21" height="18" viewBox="0 0 21 18" fill="none" xmlns="http://www.w3.org/2000/svg">
<path d="M0.758106 8.54156L5.44817 10.2904L7.27648 16.1728C7.35597 16.5703 7.83293 16.6498 8.1509 16.4113L10.7741 14.265C11.0126 14.0265 11.4101 14.0265 11.728 14.265L16.4181 17.6832C16.7361 17.9216 17.213 17.7627 17.2925 17.3652L20.7902 0.671829C20.8697 0.274367 20.4722 -0.12309 20.0747 0.0358944L0.758106 7.50817C0.281152 7.66715 0.281152 8.38258 0.758106 8.54156ZM7.03801 9.41598L16.2591 3.77203C16.4181 3.69254 16.5771 3.93101 16.4181 4.01051L8.86632 11.0853C8.62785 11.3238 8.38936 11.6418 8.38936 12.0392L8.1509 13.947C8.1509 14.1855 7.75343 14.265 7.67394 13.947L6.72002 10.4494C6.48155 10.0519 6.64055 9.57496 7.03801 9.41598Z" fill="#161428"/>
</svg>
