<svg width="19" height="15" viewBox="0 0 19 15" fill="none" xmlns="http://www.w3.org/2000/svg">
<path d="M18.5404 2.41019C17.9104 2.68019 17.1904 2.8602 16.4704 2.9502C17.1904 2.5002 17.8204 1.7802 18.0904 0.970198C17.3704 1.4202 16.6504 1.6902 15.7504 1.8702C15.1204 1.1502 14.1304 0.700195 13.1404 0.700195C11.1604 0.700195 9.54038 2.3202 9.54038 4.3002C9.54038 4.5702 9.54039 4.84019 9.63039 5.11019C6.66039 4.93019 3.96039 3.49019 2.16039 1.33019C1.89039 1.87019 1.71039 2.50019 1.71039 3.13019C1.71039 4.39019 2.34039 5.4702 3.33039 6.1002C2.70039 6.1002 2.16039 5.9202 1.71039 5.6502C1.71039 7.3602 2.97038 8.89019 4.59038 9.16019C4.32038 9.25019 3.96039 9.2502 3.60039 9.2502C3.33039 9.2502 3.15039 9.25019 2.88039 9.16019C3.33039 10.6002 4.68039 11.6802 6.30039 11.6802C5.04039 12.6702 3.51039 13.2102 1.80039 13.2102C1.53039 13.2102 1.26039 13.2102 0.900391 13.1202C2.52039 14.1102 4.41039 14.7402 6.48039 14.7402C13.1404 14.7402 16.7404 9.25019 16.7404 4.48019V4.03019C17.4604 3.76019 18.0904 3.13019 18.5404 2.41019Z" fill="#161428"/>
</svg>
